<mxfile host="Electron" modified="2023-09-22T08:42:46.078Z" agent="Mozilla/5.0 (X11; Linux x86_64) AppleWebKit/537.36 (KHTML, like Gecko) draw.io/21.2.8 Chrome/112.0.5615.165 Electron/24.2.0 Safari/537.36" etag="YfQYWm62a77eFbKbZLyI" version="21.2.8" type="device">
  <diagram name="Page-1" id="FKkUJdt6P6mYZZZfsSgy">
    <mxGraphModel dx="1434" dy="870" grid="1" gridSize="10" guides="1" tooltips="1" connect="1" arrows="1" fold="1" page="1" pageScale="1" pageWidth="850" pageHeight="1100" math="0" shadow="0">
      <root>
        <mxCell id="0" />
        <mxCell id="1" parent="0" />
        <mxCell id="dgz8Fy3ZjkH41GFaiTmQ-6" value="" style="rounded=0;whiteSpace=wrap;html=1;" parent="1" vertex="1">
          <mxGeometry x="650.5" y="240" width="120" height="310" as="geometry" />
        </mxCell>
        <mxCell id="bJUq3DUy4A8ikL43-R-6-14" value="&lt;font style=&quot;font-size: 14px;&quot;&gt;Consumer Group&lt;/font&gt;" style="text;html=1;align=center;verticalAlign=middle;resizable=0;points=[];autosize=1;strokeColor=none;fillColor=none;" parent="1" vertex="1">
          <mxGeometry x="645.5" y="237" width="130" height="30" as="geometry" />
        </mxCell>
        <mxCell id="dgz8Fy3ZjkH41GFaiTmQ-11" style="edgeStyle=orthogonalEdgeStyle;rounded=0;orthogonalLoop=1;jettySize=auto;html=1;exitX=1;exitY=0.5;exitDx=0;exitDy=0;entryX=-0.011;entryY=0.398;entryDx=0;entryDy=0;entryPerimeter=0;strokeWidth=3;" parent="1" source="bJUq3DUy4A8ikL43-R-6-4" target="bJUq3DUy4A8ikL43-R-6-36" edge="1">
          <mxGeometry relative="1" as="geometry" />
        </mxCell>
        <mxCell id="bJUq3DUy4A8ikL43-R-6-4" value="" style="whiteSpace=wrap;html=1;aspect=fixed;" parent="1" vertex="1">
          <mxGeometry x="210" y="300" width="80" height="80" as="geometry" />
        </mxCell>
        <mxCell id="bJUq3DUy4A8ikL43-R-6-3" value="" style="image;sketch=0;aspect=fixed;html=1;points=[];align=center;fontSize=12;image=img/lib/mscae/Docker.svg;" parent="1" vertex="1">
          <mxGeometry x="225" y="329.5" width="50" height="41" as="geometry" />
        </mxCell>
        <mxCell id="bJUq3DUy4A8ikL43-R-6-5" value="Master" style="text;html=1;align=center;verticalAlign=middle;resizable=0;points=[];autosize=1;strokeColor=none;fillColor=none;" parent="1" vertex="1">
          <mxGeometry x="220" y="300" width="60" height="30" as="geometry" />
        </mxCell>
        <mxCell id="bJUq3DUy4A8ikL43-R-6-17" value="" style="endArrow=classic;html=1;rounded=0;entryX=0;entryY=0.5;entryDx=0;entryDy=0;strokeWidth=3;fillColor=#1ba1e2;strokeColor=#000305;" parent="1" target="bJUq3DUy4A8ikL43-R-6-4" edge="1">
          <mxGeometry width="50" height="50" relative="1" as="geometry">
            <mxPoint x="100" y="340" as="sourcePoint" />
            <mxPoint x="180" y="400" as="targetPoint" />
            <Array as="points">
              <mxPoint x="160" y="340" />
            </Array>
          </mxGeometry>
        </mxCell>
        <mxCell id="bJUq3DUy4A8ikL43-R-6-20" value="&lt;font style=&quot;font-size: 14px;&quot;&gt;/receipts&lt;/font&gt;" style="text;html=1;align=center;verticalAlign=middle;resizable=0;points=[];autosize=1;strokeColor=none;fillColor=none;" parent="1" vertex="1">
          <mxGeometry x="110" y="305" width="80" height="30" as="geometry" />
        </mxCell>
        <mxCell id="dgz8Fy3ZjkH41GFaiTmQ-15" style="edgeStyle=orthogonalEdgeStyle;rounded=0;orthogonalLoop=1;jettySize=auto;html=1;exitX=0.5;exitY=1;exitDx=0;exitDy=0;entryX=0.45;entryY=-0.033;entryDx=0;entryDy=0;entryPerimeter=0;endArrow=none;endFill=0;startArrow=classic;startFill=1;strokeWidth=3;" parent="1" source="bJUq3DUy4A8ikL43-R-6-36" target="bJUq3DUy4A8ikL43-R-6-55" edge="1">
          <mxGeometry relative="1" as="geometry" />
        </mxCell>
        <mxCell id="dgz8Fy3ZjkH41GFaiTmQ-18" style="edgeStyle=orthogonalEdgeStyle;rounded=0;orthogonalLoop=1;jettySize=auto;html=1;exitX=1.071;exitY=0.375;exitDx=0;exitDy=0;entryX=-0.004;entryY=0.552;entryDx=0;entryDy=0;entryPerimeter=0;strokeWidth=3;dashed=1;exitPerimeter=0;" parent="1" source="dgz8Fy3ZjkH41GFaiTmQ-17" target="dgz8Fy3ZjkH41GFaiTmQ-6" edge="1">
          <mxGeometry relative="1" as="geometry" />
        </mxCell>
        <mxCell id="bJUq3DUy4A8ikL43-R-6-36" value="" style="rounded=0;whiteSpace=wrap;html=1;" parent="1" vertex="1">
          <mxGeometry x="423" y="180" width="90" height="400" as="geometry" />
        </mxCell>
        <mxCell id="bJUq3DUy4A8ikL43-R-6-37" value="" style="rounded=0;whiteSpace=wrap;html=1;" parent="1" vertex="1">
          <mxGeometry x="432" y="270" width="70" height="110" as="geometry" />
        </mxCell>
        <mxCell id="bJUq3DUy4A8ikL43-R-6-38" value="Broker 1&lt;br&gt;Topic 1" style="text;html=1;align=center;verticalAlign=middle;resizable=0;points=[];autosize=1;strokeColor=none;fillColor=none;" parent="1" vertex="1">
          <mxGeometry x="431" y="272" width="70" height="40" as="geometry" />
        </mxCell>
        <mxCell id="bJUq3DUy4A8ikL43-R-6-39" value="" style="rounded=0;whiteSpace=wrap;html=1;" parent="1" vertex="1">
          <mxGeometry x="673" y="277.25" width="75" height="85.5" as="geometry" />
        </mxCell>
        <mxCell id="bJUq3DUy4A8ikL43-R-6-40" value="Partition 0" style="rounded=0;whiteSpace=wrap;html=1;" parent="1" vertex="1">
          <mxGeometry x="436" y="307" width="60" height="30" as="geometry" />
        </mxCell>
        <mxCell id="bJUq3DUy4A8ikL43-R-6-41" value="Kafka Cluster" style="text;html=1;align=center;verticalAlign=middle;resizable=0;points=[];autosize=1;strokeColor=none;fillColor=none;" parent="1" vertex="1">
          <mxGeometry x="416" y="240" width="100" height="30" as="geometry" />
        </mxCell>
        <mxCell id="bJUq3DUy4A8ikL43-R-6-48" value="" style="image;sketch=0;aspect=fixed;html=1;points=[];align=center;fontSize=12;image=img/lib/mscae/Docker.svg;" parent="1" vertex="1">
          <mxGeometry x="443" y="530" width="50" height="41" as="geometry" />
        </mxCell>
        <mxCell id="dgz8Fy3ZjkH41GFaiTmQ-14" style="edgeStyle=orthogonalEdgeStyle;rounded=0;orthogonalLoop=1;jettySize=auto;html=1;exitX=1;exitY=0.5;exitDx=0;exitDy=0;entryX=-0.011;entryY=0.882;entryDx=0;entryDy=0;entryPerimeter=0;strokeWidth=3;startArrow=classic;startFill=1;" parent="1" source="bJUq3DUy4A8ikL43-R-6-49" target="bJUq3DUy4A8ikL43-R-6-36" edge="1">
          <mxGeometry relative="1" as="geometry" />
        </mxCell>
        <mxCell id="bJUq3DUy4A8ikL43-R-6-49" value="" style="whiteSpace=wrap;html=1;aspect=fixed;" parent="1" vertex="1">
          <mxGeometry x="295" y="500" width="80" height="80" as="geometry" />
        </mxCell>
        <mxCell id="bJUq3DUy4A8ikL43-R-6-50" value="&lt;font style=&quot;font-size: 14px;&quot;&gt;zookeeper&lt;/font&gt;" style="text;html=1;align=center;verticalAlign=middle;resizable=0;points=[];autosize=1;strokeColor=none;fillColor=none;" parent="1" vertex="1">
          <mxGeometry x="290" y="500" width="90" height="30" as="geometry" />
        </mxCell>
        <mxCell id="bJUq3DUy4A8ikL43-R-6-51" value="" style="image;sketch=0;aspect=fixed;html=1;points=[];align=center;fontSize=12;image=img/lib/mscae/Docker.svg;" parent="1" vertex="1">
          <mxGeometry x="310" y="530" width="50" height="41" as="geometry" />
        </mxCell>
        <mxCell id="bJUq3DUy4A8ikL43-R-6-53" value="" style="whiteSpace=wrap;html=1;aspect=fixed;" parent="1" vertex="1">
          <mxGeometry x="432" y="640" width="80" height="80" as="geometry" />
        </mxCell>
        <mxCell id="bJUq3DUy4A8ikL43-R-6-54" value="" style="image;sketch=0;aspect=fixed;html=1;points=[];align=center;fontSize=12;image=img/lib/mscae/Docker.svg;" parent="1" vertex="1">
          <mxGeometry x="447" y="670" width="50" height="41" as="geometry" />
        </mxCell>
        <mxCell id="bJUq3DUy4A8ikL43-R-6-55" value="&lt;font style=&quot;font-size: 14px;&quot;&gt;kafka-init&lt;/font&gt;" style="text;html=1;align=center;verticalAlign=middle;resizable=0;points=[];autosize=1;strokeColor=none;fillColor=none;" parent="1" vertex="1">
          <mxGeometry x="432" y="640" width="80" height="30" as="geometry" />
        </mxCell>
        <mxCell id="bJUq3DUy4A8ikL43-R-6-57" value="&lt;font style=&quot;font-size: 14px;&quot;&gt;create topic&lt;/font&gt;" style="text;html=1;align=center;verticalAlign=middle;resizable=0;points=[];autosize=1;strokeColor=none;fillColor=none;" parent="1" vertex="1">
          <mxGeometry x="370" y="600" width="100" height="30" as="geometry" />
        </mxCell>
        <mxCell id="dgz8Fy3ZjkH41GFaiTmQ-2" value="" style="shape=image;verticalLabelPosition=bottom;labelBackgroundColor=default;verticalAlign=top;aspect=fixed;imageAspect=0;image=https://logowik.com/content/uploads/images/kafka8040.jpg;" parent="1" vertex="1">
          <mxGeometry x="430.05999999999995" y="183" width="71.94" height="54" as="geometry" />
        </mxCell>
        <mxCell id="dgz8Fy3ZjkH41GFaiTmQ-3" value="Partition 1" style="rounded=0;whiteSpace=wrap;html=1;" parent="1" vertex="1">
          <mxGeometry x="436" y="343" width="60" height="30" as="geometry" />
        </mxCell>
        <mxCell id="dgz8Fy3ZjkH41GFaiTmQ-7" value="Consumer 1" style="text;html=1;align=center;verticalAlign=middle;resizable=0;points=[];autosize=1;strokeColor=none;fillColor=none;" parent="1" vertex="1">
          <mxGeometry x="665" y="277.25" width="90" height="30" as="geometry" />
        </mxCell>
        <mxCell id="bJUq3DUy4A8ikL43-R-6-13" value="" style="image;sketch=0;aspect=fixed;html=1;points=[];align=center;fontSize=12;image=img/lib/mscae/Docker.svg;" parent="1" vertex="1">
          <mxGeometry x="685" y="311.75" width="50" height="41" as="geometry" />
        </mxCell>
        <mxCell id="dgz8Fy3ZjkH41GFaiTmQ-8" value="" style="rounded=0;whiteSpace=wrap;html=1;" parent="1" vertex="1">
          <mxGeometry x="673" y="454.5" width="75" height="85.5" as="geometry" />
        </mxCell>
        <mxCell id="dgz8Fy3ZjkH41GFaiTmQ-9" value="Consumer 4" style="text;html=1;align=center;verticalAlign=middle;resizable=0;points=[];autosize=1;strokeColor=none;fillColor=none;" parent="1" vertex="1">
          <mxGeometry x="665" y="454.5" width="90" height="30" as="geometry" />
        </mxCell>
        <mxCell id="dgz8Fy3ZjkH41GFaiTmQ-10" value="" style="image;sketch=0;aspect=fixed;html=1;points=[];align=center;fontSize=12;image=img/lib/mscae/Docker.svg;" parent="1" vertex="1">
          <mxGeometry x="685" y="489" width="50" height="41" as="geometry" />
        </mxCell>
        <mxCell id="dgz8Fy3ZjkH41GFaiTmQ-12" value="" style="endArrow=none;dashed=1;html=1;dashPattern=1 3;strokeWidth=2;rounded=0;entryX=0.5;entryY=1;entryDx=0;entryDy=0;exitX=0.49;exitY=-0.083;exitDx=0;exitDy=0;exitPerimeter=0;" parent="1" source="dgz8Fy3ZjkH41GFaiTmQ-9" target="bJUq3DUy4A8ikL43-R-6-39" edge="1">
          <mxGeometry width="50" height="50" relative="1" as="geometry">
            <mxPoint x="670" y="430" as="sourcePoint" />
            <mxPoint x="720" y="380" as="targetPoint" />
          </mxGeometry>
        </mxCell>
        <mxCell id="dgz8Fy3ZjkH41GFaiTmQ-16" value="" style="rounded=0;whiteSpace=wrap;html=1;" parent="1" vertex="1">
          <mxGeometry x="432" y="395" width="68" height="115" as="geometry" />
        </mxCell>
        <mxCell id="dgz8Fy3ZjkH41GFaiTmQ-17" value="Broker 2&lt;br&gt;Topic 1" style="text;html=1;align=center;verticalAlign=middle;resizable=0;points=[];autosize=1;strokeColor=none;fillColor=none;" parent="1" vertex="1">
          <mxGeometry x="432" y="395" width="70" height="40" as="geometry" />
        </mxCell>
        <mxCell id="dgz8Fy3ZjkH41GFaiTmQ-4" value="Partition 2" style="rounded=0;whiteSpace=wrap;html=1;" parent="1" vertex="1">
          <mxGeometry x="436" y="435" width="60" height="30" as="geometry" />
        </mxCell>
        <mxCell id="dgz8Fy3ZjkH41GFaiTmQ-5" value="Partition 3" style="rounded=0;whiteSpace=wrap;html=1;" parent="1" vertex="1">
          <mxGeometry x="436" y="471" width="60" height="30" as="geometry" />
        </mxCell>
        <mxCell id="dgz8Fy3ZjkH41GFaiTmQ-19" value="&lt;font style=&quot;font-size: 14px;&quot;&gt;1 partitions for&lt;br&gt;each consumer&lt;/font&gt;" style="text;html=1;align=center;verticalAlign=middle;resizable=0;points=[];autosize=1;strokeColor=none;fillColor=none;" parent="1" vertex="1">
          <mxGeometry x="525" y="357.75" width="120" height="50" as="geometry" />
        </mxCell>
        <mxCell id="CjHA0gQlwIbuhoAR95QE-1" value="" style="whiteSpace=wrap;html=1;aspect=fixed;" vertex="1" parent="1">
          <mxGeometry x="295" y="410" width="80" height="80" as="geometry" />
        </mxCell>
        <mxCell id="CjHA0gQlwIbuhoAR95QE-2" value="&lt;font style=&quot;font-size: 14px;&quot;&gt;zookeeper&lt;/font&gt;" style="text;html=1;align=center;verticalAlign=middle;resizable=0;points=[];autosize=1;strokeColor=none;fillColor=none;" vertex="1" parent="1">
          <mxGeometry x="290" y="410" width="90" height="30" as="geometry" />
        </mxCell>
        <mxCell id="CjHA0gQlwIbuhoAR95QE-3" value="" style="image;sketch=0;aspect=fixed;html=1;points=[];align=center;fontSize=12;image=img/lib/mscae/Docker.svg;" vertex="1" parent="1">
          <mxGeometry x="310" y="440" width="50" height="41" as="geometry" />
        </mxCell>
        <mxCell id="CjHA0gQlwIbuhoAR95QE-4" style="edgeStyle=orthogonalEdgeStyle;rounded=0;orthogonalLoop=1;jettySize=auto;html=1;exitX=1;exitY=0.5;exitDx=0;exitDy=0;entryX=-0.011;entryY=0.882;entryDx=0;entryDy=0;entryPerimeter=0;strokeWidth=3;startArrow=classic;startFill=1;" edge="1" parent="1">
          <mxGeometry relative="1" as="geometry">
            <mxPoint x="375" y="452" as="sourcePoint" />
            <mxPoint x="422" y="452" as="targetPoint" />
          </mxGeometry>
        </mxCell>
        <mxCell id="CjHA0gQlwIbuhoAR95QE-5" value="" style="whiteSpace=wrap;html=1;aspect=fixed;" vertex="1" parent="1">
          <mxGeometry x="907" y="343" width="80" height="80" as="geometry" />
        </mxCell>
        <mxCell id="CjHA0gQlwIbuhoAR95QE-6" value="" style="image;sketch=0;aspect=fixed;html=1;points=[];align=center;fontSize=12;image=img/lib/mscae/Docker.svg;" vertex="1" parent="1">
          <mxGeometry x="922" y="373" width="50" height="41" as="geometry" />
        </mxCell>
        <mxCell id="CjHA0gQlwIbuhoAR95QE-7" value="&lt;font style=&quot;font-size: 14px;&quot;&gt;postgres&lt;/font&gt;" style="text;html=1;align=center;verticalAlign=middle;resizable=0;points=[];autosize=1;strokeColor=none;fillColor=none;" vertex="1" parent="1">
          <mxGeometry x="907" y="343" width="80" height="30" as="geometry" />
        </mxCell>
        <mxCell id="CjHA0gQlwIbuhoAR95QE-8" style="edgeStyle=orthogonalEdgeStyle;rounded=0;orthogonalLoop=1;jettySize=auto;html=1;exitX=1;exitY=0.5;exitDx=0;exitDy=0;entryX=-0.004;entryY=0.552;entryDx=0;entryDy=0;entryPerimeter=0;strokeWidth=3;dashed=1;" edge="1" parent="1">
          <mxGeometry relative="1" as="geometry">
            <mxPoint x="770.5" y="382.5" as="sourcePoint" />
            <mxPoint x="907.5" y="382.5" as="targetPoint" />
          </mxGeometry>
        </mxCell>
        <mxCell id="CjHA0gQlwIbuhoAR95QE-9" value="&lt;font style=&quot;font-size: 14px;&quot;&gt;4 consumers&lt;br&gt;insert batches&lt;/font&gt;" style="text;html=1;align=center;verticalAlign=middle;resizable=0;points=[];autosize=1;strokeColor=none;fillColor=none;" vertex="1" parent="1">
          <mxGeometry x="790" y="330" width="110" height="50" as="geometry" />
        </mxCell>
      </root>
    </mxGraphModel>
  </diagram>
</mxfile>
